<svg viewBox="0 0 310 155" fill="none" xmlns="http://www.w3.org/2000/svg">
  <line x1="15" y1="10" x2="295" y2="10" stroke="#F0F0F0" stroke-width="0.75"/>
  <line x1="15" y1="65" x2="295" y2="65" stroke="#F0F0F0" stroke-width="0.75"/>
  <line x1="15" y1="120" x2="295" y2="120" stroke="#F0F0F0" stroke-width="0.75"/>
  <line x1="15" y1="28" x2="295" y2="28" stroke="#FF9500" stroke-width="1" stroke-dasharray="5 4" opacity="0.4"/>
  <text x="293" y="23" font-size="9" fill="#FF9500" font-weight="600" font-family="-apple-system, system-ui, sans-serif" opacity="0.6" text-anchor="end">2,000 goal</text>
  <defs>
    <linearGradient id="calGrad" x1="0" y1="0" x2="0" y2="1">
      <stop offset="0%" stop-color="#FF9500" stop-opacity="0.15"/>
      <stop offset="100%" stop-color="#FF9500" stop-opacity="0.01"/>
    </linearGradient>
  </defs>
  <polygon points="15,45 62,60 108,36 155,56 202,92 248,43 295,69 295,120 15,120" fill="url(#calGrad)"/>
  <polyline points="15,45 62,60 108,36 155,56 202,92 248,43 295,69" stroke="#FF9500" stroke-width="2.5" stroke-linecap="round" stroke-linejoin="round" fill="none"/>
  <circle cx="15" cy="45" r="3.5" fill="#FF9500"/>
  <circle cx="62" cy="60" r="3.5" fill="#FF9500"/>
  <circle cx="108" cy="36" r="3.5" fill="#FF9500"/>
  <circle cx="155" cy="56" r="3.5" fill="#FF9500"/>
  <circle cx="202" cy="92" r="3.5" fill="#FF9500"/>
  <circle cx="248" cy="43" r="3.5" fill="#FF9500"/>
  <circle cx="295" cy="69" r="4.5" fill="#FFFFFF" stroke="#FF9500" stroke-width="2.5"/>
  <text x="295" y="86" font-size="10" fill="#FF9500" font-weight="600" font-family="-apple-system, system-ui, sans-serif" text-anchor="middle">1,560</text>
  <text x="15" y="142" font-size="10" fill="#AEAEB2" font-weight="500" font-family="-apple-system, system-ui, sans-serif" text-anchor="middle">Fri</text>
  <text x="62" y="142" font-size="10" fill="#AEAEB2" font-weight="500" font-family="-apple-system, system-ui, sans-serif" text-anchor="middle">Sat</text>
  <text x="108" y="142" font-size="10" fill="#AEAEB2" font-weight="500" font-family="-apple-system, system-ui, sans-serif" text-anchor="middle">Sun</text>
  <text x="155" y="142" font-size="10" fill="#AEAEB2" font-weight="500" font-family="-apple-system, system-ui, sans-serif" text-anchor="middle">Mon</text>
  <text x="202" y="142" font-size="10" fill="#AEAEB2" font-weight="500" font-family="-apple-system, system-ui, sans-serif" text-anchor="middle">Tue</text>
  <text x="248" y="142" font-size="10" fill="#AEAEB2" font-weight="500" font-family="-apple-system, system-ui, sans-serif" text-anchor="middle">Wed</text>
  <text x="295" y="142" font-size="10" fill="#1A1A1A" font-weight="600" font-family="-apple-system, system-ui, sans-serif" text-anchor="middle">Thu</text>
</svg>
