<svg width="24" height="24" viewBox="0 0 24 24" fill="none" xmlns="http://www.w3.org/2000/svg">
  <path d="M12 15A3 3 0 1 0 12 9A3 3 0 0 0 12 15Z" stroke="currentColor" stroke-width="1.8"/>
  <path d="M19.4 15C19.62 15.58 19.75 16.19 19.79 16.82M4.21 16.82C4.25 16.19 4.38 15.58 4.6 15M16.83 4.21C17.65 4.73 18.37 5.45 18.89 6.27M5.11 6.27C5.63 5.45 6.35 4.73 7.17 4.21M3 12C3 11.45 3.45 11 4 11H5.05C5.22 10.29 5.5 9.62 5.89 9.01L5.15 8.27C4.76 7.88 4.76 7.25 5.15 6.86L6.86 5.15C7.25 4.76 7.88 4.76 8.27 5.15L9.01 5.89C9.62 5.5 10.29 5.22 11 5.05V4C11 3.45 11.45 3 12 3C12.55 3 13 3.45 13 4V5.05C13.71 5.22 14.38 5.5 14.99 5.89L15.73 5.15C16.12 4.76 16.75 4.76 17.14 5.15L18.85 6.86C19.24 7.25 19.24 7.88 18.85 8.27L18.11 9.01C18.5 9.62 18.78 10.29 18.95 11H20C20.55 11 21 11.45 21 12C21 12.55 20.55 13 20 13H18.95C18.78 13.71 18.5 14.38 18.11 14.99L18.85 15.73C19.24 16.12 19.24 16.75 18.85 17.14L17.14 18.85C16.75 19.24 16.12 19.24 15.73 18.85L14.99 18.11C14.38 18.5 13.71 18.78 13 18.95V20C13 20.55 12.55 21 12 21C11.45 21 11 20.55 11 20V18.95C10.29 18.78 9.62 18.5 9.01 18.11L8.27 18.85C7.88 19.24 7.25 19.24 6.86 18.85L5.15 17.14C4.76 16.75 4.76 16.12 5.15 15.73L5.89 14.99C5.5 14.38 5.22 13.71 5.05 13H4C3.45 13 3 12.55 3 12Z" stroke="currentColor" stroke-width="1.4" stroke-linecap="round" stroke-linejoin="round"/>
</svg>
