<svg width="32" height="32" viewBox="0 0 64 64" fill="none" xmlns="http://www.w3.org/2000/svg">
  <defs>
    <linearGradient id="plateFill" x1="32" y1="16" x2="32" y2="52" gradientUnits="userSpaceOnUse">
      <stop stop-color="#FFFFFF"/>
      <stop offset="1" stop-color="#EEF0F4"/>
    </linearGradient>
    <linearGradient id="salmonFill" x1="22" y1="25" x2="44" y2="39" gradientUnits="userSpaceOnUse">
      <stop stop-color="#FFA45B"/>
      <stop offset="1" stop-color="#FF7E3E"/>
    </linearGradient>
  </defs>

  <ellipse cx="32" cy="36" rx="22" ry="16" fill="url(#plateFill)" stroke="#1A1A1A" stroke-width="2.2"/>

  <path d="M18 36C19.8 30.8 24.6 27 30.2 27H40.8C42.6 27 44 28.4 44 30.2C44 33.1 41.7 35.4 38.8 35.4H30.5C27.2 35.4 24.8 37.7 24 41" fill="url(#salmonFill)"/>
  <path d="M18 36C19.8 30.8 24.6 27 30.2 27H40.8C42.6 27 44 28.4 44 30.2C44 33.1 41.7 35.4 38.8 35.4H30.5C27.2 35.4 24.8 37.7 24 41" stroke="#1A1A1A" stroke-width="1.8" stroke-linecap="round"/>

  <ellipse cx="42" cy="39" rx="7" ry="5.5" fill="#FBFBFD" stroke="#DADDE4" stroke-width="1.5"/>
  <circle cx="39.7" cy="37.8" r="0.9" fill="#D2D6DE"/>
  <circle cx="42.2" cy="40.3" r="0.9" fill="#D2D6DE"/>
  <circle cx="44.7" cy="37.8" r="0.9" fill="#D2D6DE"/>

  <circle cx="20" cy="30" r="2" fill="#34C759"/>
  <path d="M19 30.3L20 28.2L21.1 30.3" stroke="#1A1A1A" stroke-width="1" stroke-linecap="round"/>
</svg>
